<svg xmlns="http://www.w3.org/2000/svg" width="52.87" height="51" viewBox="0 0 55 54" fill="none">
  <rect x="0.985352" y="0.253784" width="53.7313" height="53.7313" rx="26.8657" fill="white"/>
  <path d="M44.7535 25.3337H44.3233L42.9714 19.3658C42.7857 18.5462 42.0697 17.9738 41.2293 17.9738H35.768V16.1874C35.768 14.8084 34.6462 13.6865 33.2671 13.6865C32.4195 13.6865 14.0361 13.6865 13.1882 13.6865C11.8091 13.6865 10.6873 14.8084 10.6873 16.1874V33.7654C10.6873 35.1437 11.8091 36.2663 13.1882 36.2663H15.2132C15.707 38.56 17.7513 40.285 20.1908 40.285C22.6303 40.285 24.6746 38.56 25.1684 36.2663H35.4529C35.9466 38.56 37.9909 40.285 40.4304 40.285C42.9028 40.285 44.9693 38.5143 45.4266 36.1742C46.4799 35.8798 47.2544 34.9115 47.2544 33.7654V27.8346C47.2544 26.4555 46.1325 25.3337 44.7535 25.3337ZM45.1107 27.8347V33.1917C44.3319 31.3767 42.5269 30.1027 40.4304 30.1027C38.3497 30.1027 36.5569 31.3575 35.768 33.1503V27.4774H44.7534C44.9507 27.4773 45.1107 27.6374 45.1107 27.8347ZM40.9435 20.1175L42.1254 25.3337H35.768V20.1175H40.9435ZM26.7532 15.8302V19.703L23.6271 18.4475C23.3718 18.3448 23.0846 18.3444 22.8282 18.4475L19.7021 19.703V15.8302H26.7532ZM12.8309 33.7654V16.1874C12.8309 15.9903 12.991 15.8302 13.1882 15.8302H17.5584V21.2886C17.5584 22.0459 18.3242 22.5658 19.0296 22.2833L23.2276 20.5977L27.4257 22.2833C28.1324 22.566 28.8969 22.0447 28.8969 21.2886V15.8302H33.2671C33.4643 15.8302 33.6244 15.9903 33.6244 16.1874V34.1227H25.1684C24.6746 31.8275 22.6303 30.1026 20.1908 30.1026C17.7513 30.1026 15.707 31.8275 15.2132 34.1227H13.1882C12.991 34.1227 12.8309 33.9619 12.8309 33.7654ZM20.1908 38.1413C18.1318 38.1413 16.6881 36.0648 17.444 34.1227C18.6224 31.1181 23.1383 31.9301 23.1383 35.1945C23.1383 36.8237 21.8125 38.1413 20.1908 38.1413ZM40.4304 38.1413C38.3622 38.1413 36.9293 36.0519 37.6844 34.1227C38.1138 33.0259 39.1828 32.2463 40.4304 32.2463C42.503 32.2463 43.9323 34.3439 43.1758 36.2664C42.747 37.3625 41.6781 38.1413 40.4304 38.1413Z" fill="black"/>
  <path d="M26.0276 26.6522H30.3668C30.9587 26.6522 31.4386 26.1723 31.4386 25.5804C31.4386 24.9885 30.9587 24.5086 30.3668 24.5086H26.0276C25.4357 24.5086 24.9558 24.9885 24.9558 25.5804C24.9558 26.1723 25.4357 26.6522 26.0276 26.6522Z" fill="black"/>
  <path d="M30.3666 29.3859H27.4517C26.8598 29.3859 26.3799 29.8657 26.3799 30.4577C26.3799 31.0496 26.8598 31.5295 27.4517 31.5295H30.3666C30.9585 31.5295 31.4384 31.0496 31.4384 30.4577C31.4384 29.8657 30.9585 29.3859 30.3666 29.3859Z" fill="black"/>
</svg>