<svg xmlns="http://www.w3.org/2000/svg" width="52.87" height="51" viewBox="0 0 55 54" fill="none">
  <rect x="0.775879" y="0.253784" width="53.7313" height="53.7313" rx="26.8657" fill="white"/>
  <path d="M43.7607 27.2149C43.7607 17.3821 36.1309 10.7015 27.6413 10.7015C19.2413 10.7015 11.5219 17.2388 11.5219 27.3224C10.4473 27.9313 9.7309 29.0776 9.7309 30.403V33.9851C9.7309 35.9552 11.3428 37.5671 13.313 37.5671H15.104V26.6418C15.104 19.7104 20.71 14.1045 27.6413 14.1045C34.5727 14.1045 40.1787 19.7104 40.1787 26.6418V39.3582H25.8503V42.9403H40.1787C42.1488 42.9403 43.7607 41.3283 43.7607 39.3582V37.1731C44.8175 36.6179 45.5518 35.5254 45.5518 34.2358V30.1164C45.5518 28.8627 44.8175 27.7701 43.7607 27.2149Z" fill="black"/>
  <path d="M22.2687 30.4029C23.2579 30.4029 24.0598 29.601 24.0598 28.6118C24.0598 27.6227 23.2579 26.8208 22.2687 26.8208C21.2795 26.8208 20.4777 27.6227 20.4777 28.6118C20.4777 29.601 21.2795 30.4029 22.2687 30.4029Z" fill="black"/>
  <path d="M33.0141 30.4029C34.0033 30.4029 34.8052 29.601 34.8052 28.6118C34.8052 27.6227 34.0033 26.8208 33.0141 26.8208C32.025 26.8208 31.2231 27.6227 31.2231 28.6118C31.2231 29.601 32.025 30.4029 33.0141 30.4029Z" fill="black"/>
  <path d="M38.3879 25.0836C37.9608 22.5656 36.6567 20.28 34.7063 18.6311C32.7559 16.9823 30.2851 16.0767 27.7312 16.0746C22.3043 16.0746 16.4655 20.5702 16.9312 27.6269C19.1402 26.7238 21.0913 25.2877 22.6101 23.447C24.129 21.6062 25.1684 19.418 25.6357 17.0776C27.9819 21.7881 32.7998 25.0299 38.3879 25.0836Z" fill="black"/>
</svg>