<svg width="22" height="22" viewBox="0 0 22 22" fill="none" xmlns="http://www.w3.org/2000/svg">
<g clip-path="url(#clip0_4_4)">
<path d="M6.44414 0.0768918C5.27356 0.131892 4.47422 0.318892 3.77664 0.592975C3.04305 0.870864 2.37869 1.30501 1.82964 1.86531C1.27166 2.41587 0.840028 3.08115 0.564641 3.81506C0.294225 4.51539 0.109975 5.31656 0.0586412 6.48623C0.00730785 7.65589 -0.00460881 8.03356 0.000891187 11.021C0.00639119 14.0084 0.0201412 14.3824 0.0769745 15.5557C0.132891 16.7263 0.318975 17.5256 0.593058 18.2241C0.875391 18.9474 1.25306 19.5597 1.86539 20.1702C2.41649 20.7284 3.08241 21.1601 3.81697 21.4352C4.51639 21.7056 5.31664 21.8899 6.48722 21.9412C7.65872 21.9926 8.03548 22.0045 11.022 21.999C14.0085 21.9935 14.3843 21.9797 15.5567 21.9238C16.7301 21.8688 17.5248 21.6809 18.2242 21.4077C18.9575 21.1297 19.6215 20.6956 20.1703 20.1354C20.7285 19.5843 21.1602 18.9184 21.4353 18.1838C21.7057 17.4844 21.89 16.6841 21.9404 15.5145C21.9917 14.3411 22.0046 13.9653 21.9981 10.9788C21.9926 7.99231 21.9798 7.61739 21.9239 6.44406C21.8689 5.27073 21.6819 4.47506 21.4069 3.77564C21.1292 3.04246 20.6953 2.37843 20.1355 1.82956C19.5846 1.27147 18.919 0.839828 18.1848 0.564558C17.4845 0.295058 16.6851 0.109892 15.5136 0.0603918C14.3431 0.00814176 13.9663 -0.00560824 10.9789 -0.000108238C7.99147 0.00539176 7.61747 0.0191418 6.44414 0.0768918ZM6.57247 19.9621C5.49997 19.9163 4.91789 19.7376 4.53014 19.5881C4.0516 19.4133 3.61861 19.1329 3.26331 18.7677C2.89696 18.414 2.61498 17.9822 2.43831 17.5046C2.28706 17.1168 2.10556 16.5347 2.05606 15.4622C2.00106 14.3036 1.99006 13.9552 1.98272 11.0182C1.97722 8.08123 1.98822 7.73381 2.03864 6.57423C2.08447 5.50264 2.26414 4.91964 2.41264 4.53189C2.61064 4.01764 2.84989 3.65189 3.23306 3.26506C3.5871 2.89859 4.01916 2.61661 4.49714 2.44006C4.88489 2.28881 5.46606 2.10914 6.53856 2.05781C7.69814 2.00281 8.04556 1.99181 10.9826 1.98448C13.9186 1.97898 14.267 1.98998 15.4284 2.04131C16.4991 2.08714 17.0821 2.26498 17.4698 2.41531C17.9831 2.61331 18.3498 2.85073 18.7366 3.23573C19.1235 3.62073 19.3609 3.98464 19.5616 4.49889C19.7129 4.88573 19.8935 5.46689 19.9439 6.54031C19.9989 7.69989 20.0117 8.04823 20.0172 10.9843C20.0218 13.9204 20.0117 14.2687 19.9613 15.4283C19.9146 16.5008 19.7367 17.0829 19.5873 17.4725C19.3893 17.9858 19.1501 18.3525 18.766 18.7375C18.4122 19.1038 17.9805 19.3858 17.5028 19.5625C17.116 19.7137 16.533 19.8943 15.4623 19.9456C14.3018 20.0006 13.9544 20.0116 11.0165 20.0181C8.07856 20.0245 7.73297 20.0116 6.57247 19.9621ZM15.5402 5.12039C15.5406 5.3815 15.6184 5.63664 15.7638 5.85353C15.9092 6.07042 16.1156 6.23932 16.357 6.33887C16.5984 6.43841 16.8639 6.46413 17.1199 6.41277C17.3759 6.3614 17.6109 6.23527 17.7952 6.05031C17.9795 5.86536 18.1049 5.6299 18.1553 5.37371C18.2058 5.11753 18.1792 4.85213 18.0788 4.61109C17.9784 4.37004 17.8088 4.16419 17.5914 4.01955C17.374 3.87492 17.1186 3.79801 16.8575 3.79856C16.5075 3.79929 16.1722 3.93893 15.9252 4.1868C15.6782 4.43466 15.5397 4.77046 15.5402 5.12039ZM5.35239 11.0109C5.35531 12.5088 5.95317 13.9443 7.01444 15.0014C8.07572 16.0586 9.51348 16.6509 11.0114 16.6479C12.5094 16.645 13.9448 16.0472 15.002 14.9859C16.0591 13.9246 16.6514 12.4868 16.6485 10.9889C16.6269 9.50329 16.0208 8.08602 14.9616 7.04412C13.9024 6.00223 12.4753 5.41962 10.9896 5.42251C9.50382 5.42541 8.07903 6.01357 7.02388 7.05958C5.96873 8.1056 5.3682 9.52522 5.35239 11.0109ZM7.33331 11.0072C7.33186 10.282 7.54549 9.57269 7.94718 8.96891C8.34887 8.36512 8.92059 7.89401 9.59003 7.61515C10.2595 7.33629 10.9966 7.26221 11.7081 7.40226C12.4197 7.54232 13.0737 7.89023 13.5875 8.40199C14.1013 8.91376 14.4518 9.5664 14.5947 10.2774C14.7376 10.9884 14.6665 11.7257 14.3903 12.3963C14.1141 13.0668 13.6453 13.6404 13.0432 14.0445C12.441 14.4486 11.7325 14.6651 11.0073 14.6666C10.5258 14.6675 10.0488 14.5736 9.60358 14.3903C9.15835 14.2069 8.7536 13.9376 8.41243 13.5978C8.07127 13.258 7.80038 12.8543 7.61522 12.4098C7.43006 11.9653 7.33427 11.4887 7.33331 11.0072Z" fill="white"/>
</g>
<defs>
<clipPath id="clip0_4_4">
<rect width="22" height="22" fill="white"/>
</clipPath>
</defs>
</svg>
