<svg xmlns="http://www.w3.org/2000/svg" viewBox="0 0 512 512" width="24" height="24">
  <path d="M0 352V192C0 184.268 4.731 176.648 13.061 170.031L208 21.639c5.732-6.078 15.637-6.078 21.37 0l193.939 148.391c8.33 6.617 13.061 14.237 13.061 21.98v160c0 13.255-10.745 24-24 24H380.313l-9.125-9.125c-2.875-2.875-7.5-3.125-10.625-.125l-47.416 47.416c-6.255 6.255-16.253 6.255-22.508 0L204.255 312.39c-6.255-6.255-6.255-16.253 0-22.508l47.416-47.416c3.125-3 3.125-7.5 0-10.625L120 224.687V192h48v32.687l92.755 92.755 30.75-30.75c3.125-3.125 3.125-7.5 0-10.625L256 192l-.025-.026c-6.254-6.254-16.252-6.254-22.507 0l-47.415 47.415-6.459 6.458V352h-48v-96c0-13.255 10.745-24 24-24h48c13.255 0 24 10.745 24 24v96h48z"/>
</svg>
