<svg width="13" height="13" viewBox="0 0 13 13" fill="none" xmlns="http://www.w3.org/2000/svg">
<path d="M10.9796 8.81021L11.3614 6.60021C11.3839 6.47068 11.3777 6.33781 11.3434 6.21091C11.3091 6.08401 11.2475 5.96613 11.1629 5.86553C11.0783 5.76492 10.9727 5.68402 10.8536 5.62847C10.7344 5.57293 10.6046 5.54408 10.4731 5.54396H7.66674C7.60124 5.54397 7.53653 5.52973 7.4771 5.50221C7.41766 5.4747 7.36493 5.43458 7.32256 5.38463C7.28019 5.33469 7.2492 5.27612 7.23175 5.21299C7.2143 5.14987 7.21079 5.0837 7.22149 5.01908L7.58061 2.82804C7.63862 2.47228 7.62202 2.10834 7.53186 1.75933C7.49294 1.61525 7.41835 1.4833 7.31497 1.37566C7.21159 1.26802 7.08275 1.18816 6.94036 1.14346L6.86182 1.118C6.68422 1.06118 6.49162 1.07435 6.3234 1.15483C6.13924 1.24366 6.0049 1.40562 5.95507 1.59791L5.69724 2.59133C5.61529 2.90751 5.49601 3.21281 5.3419 3.50079C5.11711 3.92166 4.76936 4.25912 4.40753 4.57058L3.62807 5.24225C3.51994 5.33569 3.43548 5.45343 3.38163 5.5858C3.32777 5.71818 3.30605 5.86144 3.31824 6.00383L3.75807 11.0917C3.77746 11.3167 3.88051 11.5263 4.04688 11.679C4.21325 11.8318 4.43085 11.9165 4.6567 11.9167H7.17436C9.06045 11.9167 10.6697 10.6026 10.9796 8.81021Z" fill="black"/>
<path fill-rule="evenodd" clip-rule="evenodd" d="M1.60765 5.13772C1.71233 5.13314 1.81473 5.16919 1.89346 5.23833C1.9722 5.30747 2.02117 5.40436 2.03015 5.50876L2.55556 11.5949C2.56446 11.6856 2.5548 11.7771 2.52715 11.8638C2.4995 11.9506 2.45446 12.0308 2.39477 12.0996C2.33508 12.1684 2.26199 12.2243 2.17998 12.2638C2.09796 12.3034 2.00874 12.3259 1.91775 12.3298C1.82677 12.3338 1.73594 12.3191 1.6508 12.2868C1.56567 12.2544 1.48802 12.2051 1.4226 12.1417C1.35718 12.0784 1.30536 12.0024 1.27031 11.9183C1.23526 11.8343 1.21771 11.7439 1.21873 11.6529V5.54343C1.21878 5.43871 1.25925 5.33806 1.33171 5.26247C1.40418 5.18688 1.50303 5.14218 1.60765 5.13772Z" fill="black"/>
</svg>
