<svg width="40" height="40" viewBox="0 0 40 40" fill="none" xmlns="http://www.w3.org/2000/svg">
<rect width="40" height="40" rx="20" fill="#121212" fill-opacity="0.2"/>
<path d="M20 28.9999C19.355 28.4279 18.626 27.8329 17.855 27.1999H17.845C15.13 24.9799 12.053 22.4679 10.694 19.4579C10.2475 18.4996 10.0109 17.457 9.99998 16.3999C9.997 14.9494 10.5788 13.5589 11.6138 12.5427C12.6488 11.5265 14.0498 10.9703 15.5 10.9999C16.6806 11.0018 17.8358 11.343 18.828 11.9829C19.264 12.2659 19.6584 12.6082 20 12.9999C20.3435 12.6097 20.738 12.2676 21.173 11.9829C22.1647 11.3429 23.3197 11.0016 24.5 10.9999C25.9502 10.9703 27.3511 11.5265 28.3862 12.5427C29.4212 13.5589 30.003 14.9494 30 16.3999C29.9898 17.4587 29.7532 18.5031 29.306 19.4629C27.947 22.4729 24.871 24.9839 22.156 27.1999L22.146 27.2079C21.374 27.8369 20.646 28.4319 20.001 29.0079L20 28.9999ZM15.5 12.9999C14.5685 12.9882 13.6701 13.3447 13 13.9919C12.3544 14.6261 11.9935 15.4949 11.9999 16.3999C12.0113 17.1704 12.1858 17.9298 12.512 18.6279C13.1535 19.9266 14.0191 21.102 15.069 22.0999C16.06 23.0999 17.2 24.0679 18.186 24.8819C18.459 25.1069 18.737 25.3339 19.015 25.5609L19.19 25.7039C19.457 25.9219 19.733 26.1479 20 26.3699L20.013 26.3579L20.019 26.3529H20.025L20.034 26.3459H20.039H20.044L20.062 26.3309L20.103 26.2979L20.11 26.2919L20.121 26.2839H20.127L20.136 26.2759L20.8 25.7309L20.974 25.5879C21.255 25.3589 21.533 25.1319 21.806 24.9069C22.792 24.0929 23.933 23.1259 24.924 22.1209C25.974 21.1235 26.8397 19.9484 27.481 18.6499C27.8131 17.9457 27.9901 17.1784 28 16.3999C28.0042 15.4977 27.6435 14.6322 27 13.9999C26.3312 13.3498 25.4326 12.9904 24.5 12.9999C23.3619 12.9902 22.2739 13.4673 21.51 14.3109L20 16.0509L18.49 14.3109C17.7261 13.4673 16.6381 12.9902 15.5 12.9999Z" fill="white"/>
</svg>
