<svg width="22" height="22" viewBox="0 0 22 22" fill="none" xmlns="http://www.w3.org/2000/svg">
<path d="M9.16668 13.75L13.9242 11L9.16668 8.24999V13.75ZM19.7633 6.5725C19.8825 7.00333 19.965 7.58083 20.02 8.31416C20.0842 9.04749 20.1117 9.67999 20.1117 10.23L20.1667 11C20.1667 13.0075 20.02 14.4833 19.7633 15.4275C19.5342 16.2525 19.0025 16.7842 18.1775 17.0133C17.7467 17.1325 16.9583 17.215 15.7483 17.27C14.5567 17.3342 13.4658 17.3617 12.4575 17.3617L11 17.4167C7.15918 17.4167 4.76668 17.27 3.82251 17.0133C2.99751 16.7842 2.46584 16.2525 2.23668 15.4275C2.11751 14.9967 2.03501 14.4192 1.98001 13.6858C1.91584 12.9525 1.88834 12.32 1.88834 11.77L1.83334 11C1.83334 8.99249 1.98001 7.51666 2.23668 6.5725C2.46584 5.7475 2.99751 5.21583 3.82251 4.98666C4.25334 4.86749 5.04168 4.78499 6.25168 4.72999C7.44334 4.66583 8.53418 4.63833 9.54251 4.63833L11 4.58333C14.8408 4.58333 17.2333 4.72999 18.1775 4.98666C19.0025 5.21583 19.5342 5.7475 19.7633 6.5725Z" fill="white"/>
</svg>
