<svg width="22" height="22" viewBox="0 0 22 22" fill="none" xmlns="http://www.w3.org/2000/svg">
<path d="M20.3619 5.18466C19.662 5.49401 18.9199 5.6973 18.1601 5.78783C18.9601 5.30822 19.5588 4.55447 19.8449 3.66666C19.0932 4.11399 18.2692 4.42749 17.4112 4.59708C16.8342 3.97977 16.0695 3.57038 15.2359 3.43253C14.4022 3.29468 13.5464 3.43611 12.8015 3.83483C12.0565 4.23354 11.4642 4.8672 11.1165 5.6373C10.7688 6.4074 10.6853 7.27079 10.879 8.09324C9.35447 8.0172 7.863 7.62124 6.50151 6.9311C5.14002 6.24095 3.93897 5.27207 2.97641 4.08741C2.63576 4.67269 2.45671 5.33796 2.45758 6.01516C2.45758 7.34433 3.13499 8.51858 4.16258 9.20608C3.55409 9.1858 2.95908 9.02149 2.42641 8.72666V8.77341C2.42638 9.65879 2.73261 10.5169 3.29315 11.2023C3.85369 11.8876 4.63403 12.358 5.50183 12.5336C4.93685 12.687 4.34433 12.7096 3.76933 12.5996C4.014 13.3617 4.49094 14.0282 5.13332 14.5057C5.77571 14.9832 6.55137 15.2478 7.35166 15.2625C6.55617 15.8869 5.64547 16.3485 4.67158 16.6209C3.69768 16.8933 2.67966 16.9712 1.67566 16.8502C3.42805 17.9771 5.468 18.5754 7.55149 18.5735C14.6043 18.5735 18.4598 12.7316 18.4598 7.66516C18.4598 7.49955 18.4562 7.33424 18.4488 7.16924C19.199 6.62686 19.8465 5.95514 20.361 5.18558" fill="white"/>
</svg>
