<svg width="22" height="22" viewBox="0 0 22 22" fill="none" xmlns="http://www.w3.org/2000/svg">
<path d="M12.9892 12.5675L14.2725 10.3492C14.355 10.2117 14.3183 10.0375 14.1992 9.93666L12.8425 8.87333C12.87 8.67166 12.8883 8.46083 12.8883 8.25C12.8883 8.03916 12.87 7.82833 12.8425 7.6175L14.1992 6.55416C14.3183 6.45333 14.355 6.27916 14.2725 6.14166L12.9892 3.92333C12.9067 3.78583 12.7417 3.73083 12.595 3.78583L11 4.4275C10.67 4.17083 10.3125 3.95999 9.91835 3.79499L9.68001 2.09916C9.66463 2.02502 9.62449 1.95832 9.56619 1.91001C9.50789 1.8617 9.43489 1.83466 9.35918 1.83333H6.79251C6.63668 1.83333 6.49918 1.95249 6.47168 2.10833L6.23335 3.80416C5.84835 3.96916 5.48168 4.18 5.15168 4.43666L3.55668 3.79499C3.41001 3.73999 3.24501 3.795 3.16251 3.9325L1.87918 6.15083C1.79668 6.28833 1.83335 6.4625 1.95251 6.56333L3.30918 7.62666C3.28168 7.82833 3.26335 8.03916 3.26335 8.25C3.26335 8.46083 3.28168 8.67166 3.30918 8.8825L1.95251 9.94583C1.83335 10.0467 1.79668 10.2208 1.87918 10.3583L3.16251 12.5767C3.24501 12.7142 3.41001 12.7692 3.55668 12.7142L5.15168 12.0725C5.48168 12.3292 5.83918 12.54 6.23335 12.705L6.47168 14.4008C6.49918 14.5475 6.63668 14.6667 6.79251 14.6667H9.35918C9.51501 14.6667 9.65251 14.5475 9.68001 14.3917L9.91835 12.6958C10.3033 12.5308 10.67 12.32 11 12.0633L12.595 12.705C12.7417 12.76 12.9067 12.705 12.9892 12.5675ZM8.07585 10.0833C7.06751 10.0833 6.24251 9.25833 6.24251 8.25C6.24251 7.24166 7.06751 6.41666 8.07585 6.41666C9.08418 6.41666 9.90918 7.24166 9.90918 8.25C9.90918 9.25833 9.08418 10.0833 8.07585 10.0833ZM20.0933 17.1142L19.2133 16.4358C19.2317 16.3075 19.25 16.17 19.25 16.0325C19.25 15.895 19.2408 15.7575 19.2133 15.6292L20.0842 14.9508C20.1575 14.8867 20.185 14.7767 20.13 14.685L19.305 13.2642C19.2592 13.1725 19.1492 13.145 19.0483 13.1725L18.0308 13.585C17.82 13.42 17.5908 13.2825 17.3342 13.1817L17.1783 12.1C17.1747 12.051 17.153 12.0051 17.1174 11.9712C17.0819 11.9373 17.035 11.9179 16.9858 11.9167H15.345C15.2442 11.9167 15.1525 11.99 15.1433 12.0908L14.9875 13.1725C14.74 13.2825 14.5017 13.4108 14.2908 13.5758L13.2733 13.1633C13.2266 13.1458 13.1752 13.1453 13.1282 13.1621C13.0812 13.1789 13.0417 13.2118 13.0167 13.255L12.1917 14.6758C12.1458 14.7675 12.155 14.8775 12.2375 14.9417L13.1083 15.62C13.0712 15.8876 13.0712 16.1591 13.1083 16.4267L12.2375 17.105C12.1642 17.1692 12.1367 17.2792 12.1917 17.3708L13.0167 18.7917C13.0625 18.8833 13.1725 18.9108 13.2733 18.8833L14.2908 18.4708C14.5017 18.6358 14.7308 18.7733 14.9875 18.8742L15.1433 19.9558C15.1617 20.0567 15.2442 20.13 15.345 20.13H16.9858C17.0867 20.13 17.1783 20.0567 17.1875 19.9558L17.3433 18.8742C17.5908 18.7642 17.8292 18.6358 18.0308 18.4708L19.0575 18.8833C19.1492 18.92 19.2592 18.8833 19.3142 18.7917L20.1392 17.3708C20.1942 17.2883 20.1667 17.1783 20.0933 17.1142ZM16.1608 17.2608C15.9983 17.2608 15.8373 17.2287 15.6871 17.1664C15.537 17.1042 15.4005 17.0129 15.2856 16.8979C15.1707 16.7829 15.0796 16.6464 15.0174 16.4962C14.9552 16.346 14.9233 16.185 14.9233 16.0224C14.9234 15.8598 14.9555 15.6989 15.0178 15.5487C15.08 15.3985 15.1713 15.2621 15.2863 15.1472C15.4013 15.0323 15.5378 14.9411 15.688 14.879C15.8382 14.8168 15.9992 14.7849 16.1618 14.7849C16.4901 14.785 16.8049 14.9156 17.037 15.1478C17.2691 15.3801 17.3994 15.695 17.3993 16.0233C17.3991 16.3517 17.2686 16.6665 17.0364 16.8986C16.8041 17.1306 16.4892 17.261 16.1608 17.2608Z" fill="#F5A42F"/>
</svg>
