<svg width="22" height="22" viewBox="0 0 22 22" fill="none" xmlns="http://www.w3.org/2000/svg">
<g clip-path="url(#clip0_1_13)">
<path d="M0.785706 3.92856C1.88953 2.64694 3.22161 1.58128 4.71428 0.785706M21.2143 3.92856C20.1104 2.64694 18.7784 1.58128 17.2857 0.785706M11 21.2143C13.2922 21.2143 15.4906 20.3037 17.1114 18.6828C18.7323 17.062 19.6428 14.8636 19.6428 12.5714C19.6428 10.2792 18.7323 8.08085 17.1114 6.46C15.4906 4.83915 13.2922 3.92856 11 3.92856C8.70776 3.92856 6.50942 4.83915 4.88857 6.46C3.26772 8.08085 2.35713 10.2792 2.35713 12.5714C2.35713 14.8636 3.26772 17.062 4.88857 18.6828C6.50942 20.3037 8.70776 21.2143 11 21.2143Z" stroke="#F5A42F" stroke-width="1.57143" stroke-linecap="round" stroke-linejoin="round"/>
<path d="M11 7.85715V12.5714H14.9286" stroke="#F5A42F" stroke-width="1.57143" stroke-linecap="round" stroke-linejoin="round"/>
</g>
<defs>
<clipPath id="clip0_1_13">
<rect width="22" height="22" fill="white"/>
</clipPath>
</defs>
</svg>
