<svg width="20" height="1   6" viewBox="0 0 10 6" fill="none" xmlns="http://www.w3.org/2000/svg">
<path d="M4.60369 0.107254C2.12647 0.107254 0.171875 3 0.171875 3C0.171875 3 2.12647 5.89313 4.60369 5.89313C6.49788 5.89313 9.03551 3 9.03551 3C9.03551 3 6.49788 0.107254 4.60369 0.107254ZM4.60369 4.80225C3.73374 4.80225 3.02564 3.99375 3.02564 3C3.02564 2.00625 3.73374 1.19738 4.60369 1.19738C5.47364 1.19738 6.18175 2.00625 6.18175 3C6.18175 3.99375 5.47364 4.80225 4.60369 4.80225ZM4.60369 1.94775C4.48128 1.94511 4.35964 1.97038 4.24588 2.02206C4.13211 2.07375 4.02851 2.15082 3.94112 2.24877C3.85374 2.34673 3.78432 2.4636 3.73693 2.59255C3.68955 2.72151 3.66514 2.85996 3.66514 2.99982C3.66514 3.13967 3.68955 3.27812 3.73693 3.40708C3.78432 3.53603 3.85374 3.6529 3.94112 3.75086C4.02851 3.84881 4.13211 3.92589 4.24588 3.97757C4.35964 4.02926 4.48128 4.05452 4.60369 4.05188C4.84495 4.04668 5.07478 3.93355 5.24378 3.73681C5.41279 3.54008 5.50747 3.27545 5.50747 2.99982C5.50747 2.72418 5.41279 2.45955 5.24378 2.26282C5.07478 2.06609 4.84495 1.95296 4.60369 1.94775Z" fill="black"/>
</svg>
